<?xml version="1.0" encoding="UTF-8"?>
<svg id="_图层_2" data-name="图层_2" xmlns="http://www.w3.org/2000/svg" xmlns:xlink="http://www.w3.org/1999/xlink" viewBox="0 0 433.15 133.17">
  <defs>
    <style>
      .cls-1 {
        fill: url(#_未命名的渐变_81-2);
      }

      .cls-2 {
        fill: url(#_未命名的渐变_81);
      }
    </style>
    <linearGradient id="_未命名的渐变_81" data-name="未命名的渐变 81" x1="138.64" y1="20.28" x2="97.06" y2="97.98" gradientUnits="userSpaceOnUse">
      <stop offset="0" stop-color="#000"/>
      <stop offset=".22" stop-color="#000"/>
      <stop offset="1" stop-color="#000" stop-opacity="0"/>
    </linearGradient>
    <linearGradient id="_未命名的渐变_81-2" data-name="未命名的渐变 81" x1="118.63" y1="102.22" x2="165.77" y2="30.22" xlink:href="#_未命名的渐变_81"/>
  </defs>
  <g id="_图层_2-2" data-name="图层_2">
    <g>
      <g>
        <path d="M203.15,101.77c-1.34,0-2.54-.84-2.98-2.11l-26.36-74.34c-.47-1.38.56-2.81,2.02-2.81h11.59c.92,0,1.74.59,2.02,1.47l24.48,69.86,24.2-69.86c.28-.88,1.1-1.47,2.03-1.47h11.73c1.46,0,2.48,1.43,2.02,2.81l-26.36,74.34c-.45,1.26-1.64,2.11-2.98,2.11h-21.4Z"/>
        <path d="M385.4,98.98l-32.71-72.83c-.75-1.72.51-3.64,2.38-3.64h11.44c1.04,0,1.99.62,2.39,1.58l24.57,56.34,22.81-56.3c.4-.98,1.35-1.62,2.41-1.62h11.85c1.86,0,3.12,1.9,2.39,3.61l-44.65,105.46c-.41.96-1.35,1.59-2.39,1.59h-11.38c-1.88,0-3.13-1.92-2.38-3.64l13.27-30.55Z"/>
      </g>
      <path d="M336.05,23.09h-8.64c-2.21,0-3.62,1.21-3.62,3.52v6.43c-6.13-6.13-14.57-10.45-25.11-10.35-22.9-.2-40.08,18.28-40.08,39.78s17.18,39.88,40.08,39.88c9.95.2,18.58-4.02,25.11-10.05v6.23c0,2.31,1.41,3.62,3.62,3.62h8.64c2.31,0,3.62-1.31,3.62-3.62V26.61c0-2.31-1.31-3.52-3.62-3.52ZM298.68,88.49c-13.76,0-25.42-11.65-25.42-26.02s11.65-26.12,25.42-26.12c14.87,0,26.62,11.85,26.62,26.12s-11.75,26.02-26.62,26.02Z"/>
      <path d="M37.53,103.23c24.34,0,37.24-17.42,37.24-39.64V3.19c0-1.76-1.44-3.19-3.19-3.19H15.52c-1.36,0-2.45,1.1-2.45,2.45v10.12c0,1.36,1.1,2.45,2.45,2.45h43.15v45.64c0,14.63-4.66,27.27-21.15,27.27-10.28,0-18.68-5.8-21.16-15.94-.27-1.1-1.25-1.89-2.38-1.89H2.46c-1.48,0-2.64,1.3-2.44,2.77,2.49,18.28,18.37,30.35,37.5,30.35Z"/>
      <path class="cls-2" d="M106.33,93.87c-2.02,0-4.04-.77-5.58-2.31-16.11-16.11-16.35-42.07-.55-57.87,15.75-15.74,41.66-15.45,57.76.66,3.08,3.08,3.08,8.09,0,11.17-3.08,3.08-8.08,3.08-11.17,0-9.95-9.95-25.84-10.24-35.42-.66s-9.4,25.59.55,35.53c3.08,3.08,3.08,8.09,0,11.17-1.54,1.54-3.56,2.31-5.58,2.31Z"/>
      <path class="cls-1" d="M128.46,102.75c-10.17,0-20.25-3.72-27.72-11.19-3.08-3.08-3.08-8.08,0-11.17,3.08-3.08,8.08-3.08,11.17,0,8.97,8.97,25.01,8.66,34.33-.66,9.42-9.42,9.67-25.09.55-34.22-3.08-3.08-3.08-8.09,0-11.17,3.08-3.08,8.08-3.08,11.17,0,15.18,15.18,14.93,41.08-.55,56.56-7.89,7.89-18.47,11.85-28.95,11.85Z"/>
    </g>
  </g>
</svg>